<?xml version="1.0" encoding="utf-8"?>
<!-- Generator: Adobe Illustrator 22.1.0, SVG Export Plug-In . SVG Version: 6.00 Build 0)  -->
<svg version="1.1" id="Layer_1" xmlns="http://www.w3.org/2000/svg" xmlns:xlink="http://www.w3.org/1999/xlink" x="0px" y="0px"
	 viewBox="0 0 21.6 21.6" style="enable-background:new 0 0 21.6 21.6;" xml:space="preserve">
<style type="text/css">
	.st0{fill:#0097D9;}
	.st1{fill:none;stroke:#0097D9;stroke-width:2;stroke-miterlimit:10;}
</style>
<g id="Group_540" transform="translate(-3184 -1213.681)">
	<path id="Path_416" class="st0" d="M3190.3,1223.8c-0.4,0.4-0.4,1,0,1.3c0,0,0,0,0,0l3.3,3.2c0.4,0.4,1,0.4,1.4,0
		c0.4-0.4,0.4-1,0-1.4l-1.1-1.1c-0.3-0.3-0.2-0.5,0.2-0.5h4.5c0.5,0,1-0.4,1-1l0,0c0-0.5-0.4-1-1-1h-4.5c-0.4,0-0.4-0.2-0.2-0.5
		l1.1-1.1c0.4-0.4,0.4-1,0-1.4c-0.4-0.4-1-0.4-1.4,0L3190.3,1223.8z"/>
	<path id="Path_417" class="st1" d="M3185,1224.5c0,5.4,4.4,9.8,9.8,9.8s9.8-4.4,9.8-9.8c0-5.4-4.4-9.8-9.8-9.8l0,0
		C3189.4,1214.7,3185,1219.1,3185,1224.5"/>
</g>
</svg>
