<svg xmlns="http://www.w3.org/2000/svg" viewBox="0 0 128 85"><defs><style>.a{fill:#b2b2bf;}</style></defs><g transform="translate(0 -23)"><path class="a" d="M19.336,55.448A.5.5,0,0,0,20,55.221l6.887-14a.5.5,0,0,0-.9-.441l-6.887,14A.5.5,0,0,0,19.336,55.448Z"/><path class="a" d="M26.552,44.566l-4.04,8.209a.5.5,0,1,0,.9.441l4.04-8.209a.5.5,0,0,0-.9-.441Z"/><path class="a" d="M18.779,51.661a.5.5,0,0,0,.669-.227l4.039-8.209a.5.5,0,0,0-.9-.441l-4.039,8.209A.5.5,0,0,0,18.779,51.661Z"/><circle class="a" cx="0.5" cy="0.5" r="0.5" transform="translate(62 93)"/><circle class="a" cx="0.5" cy="0.5" r="0.5" transform="translate(62 90)"/><circle class="a" cx="0.5" cy="0.5" r="0.5" transform="translate(111 93)"/><circle class="a" cx="0.5" cy="0.5" r="0.5" transform="translate(111 90)"/><circle class="a" cx="0.5" cy="0.5" r="0.5" transform="translate(25 79)"/><circle class="a" cx="0.5" cy="0.5" r="0.5" transform="translate(25 76)"/><path class="a" d="M23,93a4,4,0,1,0,4,4A4,4,0,0,0,23,93Zm0,7a3,3,0,1,1,3-3A3,3,0,0,1,23,100Z"/><path class="a" d="M96,93a4,4,0,1,0,4,4A4,4,0,0,0,96,93Zm0,7a3,3,0,1,1,3-3A3,3,0,0,1,96,100Z"/><circle class="a" cx="0.5" cy="0.5" r="0.5" transform="translate(7 56)"/><path class="a" d="M116,52v4.714A2.346,2.346,0,0,0,118.4,59h1.2a2.346,2.346,0,0,0,2.4-2.286v-5.14a.563.563,0,0,0,0-.354V51h-.093a1.832,1.832,0,0,0-.316-.419l-9.1-9.162a4.85,4.85,0,0,0-1.4-.919H114a.5.5,0,0,0,0-1H60a.5.5,0,0,0,0,1h2.909a4.85,4.85,0,0,0-1.4.919l-9.1,9.162a1.833,1.833,0,0,0-.316.419H52v.22a.562.562,0,0,0,0,.354v5.14A2.346,2.346,0,0,0,54.4,59h1.2A2.346,2.346,0,0,0,58,56.714V52h2v4.714A2.346,2.346,0,0,0,62.4,59h1.2A2.346,2.346,0,0,0,66,56.714V52h2v4.714A2.346,2.346,0,0,0,70.4,59h1.2A2.346,2.346,0,0,0,74,56.714V52h2v4.714A2.346,2.346,0,0,0,78.4,59h1.2A2.346,2.346,0,0,0,82,56.714V52h2v4.714A2.346,2.346,0,0,0,86.4,59h1.2A2.346,2.346,0,0,0,90,56.714V52h2v4.714A2.346,2.346,0,0,0,94.4,59h1.2A2.346,2.346,0,0,0,98,56.714V52h2v4.714A2.346,2.346,0,0,0,102.4,59h1.2a2.346,2.346,0,0,0,2.4-2.286V52h2v4.714A2.346,2.346,0,0,0,110.4,59h1.2a2.346,2.346,0,0,0,2.4-2.286V52Zm-7.217-1a.5.5,0,0,0-.146-.353L99.031,41h6.306l9.958,10h-6.512ZM121,56.714A1.348,1.348,0,0,1,119.6,58h-1.2a1.348,1.348,0,0,1-1.4-1.286V52h4ZM120.6,51h-4.1a.5.5,0,0,0-.146-.353L106.748,41h2.337a4.6,4.6,0,0,1,2.7,1.123ZM62.215,42.124A4.6,4.6,0,0,1,64.915,41h2.337l-9.607,9.647A.5.5,0,0,0,57.5,51H53.4ZM57,56.714A1.348,1.348,0,0,1,55.6,58H54.4A1.348,1.348,0,0,1,53,56.714V52h4ZM58.705,51l9.958-10h6.306l-9.606,9.647a.5.5,0,0,0-.146.353H58.705ZM65,56.714A1.348,1.348,0,0,1,63.6,58H62.4A1.348,1.348,0,0,1,61,56.714V52h4ZM66.422,51,76.38,41h6.306l-9.606,9.647a.5.5,0,0,0-.146.353H66.422ZM73,56.714A1.348,1.348,0,0,1,71.6,58H70.4A1.348,1.348,0,0,1,69,56.714V52h4ZM74.139,51,84.1,41h6.3L80.8,50.647A.5.5,0,0,0,80.65,51H74.139ZM81,56.714A1.348,1.348,0,0,1,79.6,58H78.4A1.348,1.348,0,0,1,77,56.714V52h4Zm8,0A1.348,1.348,0,0,1,87.6,58H86.4A1.348,1.348,0,0,1,85,56.714V52h4ZM90,51H81.855L87,45.833,92.144,51H90Zm7,5.714A1.348,1.348,0,0,1,95.6,58H94.4A1.348,1.348,0,0,1,93,56.714V52h4ZM93.35,51a.5.5,0,0,0-.146-.353l-5.5-5.523,3.152-3.166,9,9.042H93.35ZM105,56.714A1.348,1.348,0,0,1,103.6,58h-1.2a1.348,1.348,0,0,1-1.4-1.286V52h4ZM101.066,51a.5.5,0,0,0-.146-.353l-9.357-9.4.249-.25H97.62l9.958,10h-6.512ZM113,56.714A1.348,1.348,0,0,1,111.6,58h-1.2a1.348,1.348,0,0,1-1.4-1.286V52h4Z"/><path class="a" d="M60,32.5h54a.5.5,0,0,0,0-1H60a.5.5,0,0,0,0,1Z"/><path class="a" d="M80.482,69.923a3.193,3.193,0,0,0-.458-3.524,3.32,3.32,0,0,0-2.239-1.182,2.821,2.821,0,0,0-1.76.428,3.45,3.45,0,0,0-.332-.465A3.318,3.318,0,0,0,73.457,64a2.779,2.779,0,0,0-2.051.643c-.052.045-.087.1-.136.153a2.448,2.448,0,0,0-3.4-.206,2.487,2.487,0,0,0-.357,3.4,3.1,3.1,0,0,0,.008,4.141,3.389,3.389,0,0,0,.4.406,3.128,3.128,0,0,0,.083,4.084A3.319,3.319,0,0,0,70.249,77.8c.083.007.166.011.247.011a2.83,2.83,0,0,0,.914-.153l13.5,8.02a1.912,1.912,0,0,0,.909.322c.511,0,.665-.5.326-1.375ZM75.9,79.162l5.326-4.532,1.262,3.275s-.011,0-.016.009l-3.564,3.034Zm-3.506-2.083,7.36-6.267,1.09,2.828L74.99,78.622ZM68.521,65.35a1.451,1.451,0,0,1,.95-.35,1.466,1.466,0,0,1,1.122.521,1.49,1.49,0,0,1-.17,2.094,1.445,1.445,0,0,1-.95.351,1.467,1.467,0,0,1-1.123-.521A1.494,1.494,0,0,1,68.521,65.35Zm-.25,3.289a2.462,2.462,0,0,0,3.535-2.959A1.659,1.659,0,0,1,73.374,65a2.31,2.31,0,0,1,1.555.829,2.421,2.421,0,0,1,.441.775,8.554,8.554,0,0,1-2.635,3.3,10.929,10.929,0,0,1-3.8,2.117,2.383,2.383,0,0,1-.647-.535A2.1,2.1,0,0,1,68.271,68.639Zm2.06,8.165a2.32,2.32,0,0,1-1.556-.829,2.1,2.1,0,0,1-.022-2.842,11.986,11.986,0,0,0,4.639-2.476c2.42-2.107,2.867-3.489,3.036-4.065a1.786,1.786,0,0,1,1.275-.378,2.316,2.316,0,0,1,1.558.829,2.085,2.085,0,0,1-.059,2.926L71.653,76.4A1.812,1.812,0,0,1,70.331,76.8Zm9.485,4.685,3.051-2.6,2.2,5.718Z"/><path class="a" d="M106.126,64.588a2.449,2.449,0,0,0-3.4.206c-.049-.049-.084-.108-.136-.153A2.775,2.775,0,0,0,100.543,64a3.322,3.322,0,0,0-2.237,1.182,3.525,3.525,0,0,0-.331.465,2.825,2.825,0,0,0-1.76-.428A3.32,3.32,0,0,0,93.976,66.4a3.191,3.191,0,0,0-.458,3.523l-5.667,14.7c-.339.878-.185,1.375.326,1.375a1.912,1.912,0,0,0,.909-.322l13.5-8.02a2.83,2.83,0,0,0,.914.153c.081,0,.164,0,.247-.011a3.319,3.319,0,0,0,2.237-1.181,3.128,3.128,0,0,0,.083-4.083,3.465,3.465,0,0,0,.4-.407,3.1,3.1,0,0,0,.008-4.141A2.487,2.487,0,0,0,106.126,64.588Zm-1.6.412a1.463,1.463,0,0,1,.948.35,1.493,1.493,0,0,1,.172,2.095,1.467,1.467,0,0,1-1.123.521,1.445,1.445,0,0,1-.95-.351,1.49,1.49,0,0,1-.17-2.094A1.466,1.466,0,0,1,104.529,65ZM95.093,80.948l-3.564-3.034s-.011,0-.016-.009l1.262-3.275L98.1,79.162Zm3.917-2.326-5.854-4.981,1.09-2.828,7.36,6.267ZM88.929,84.608l2.2-5.718,3.051,2.6Zm16.3-8.634a2.32,2.32,0,0,1-1.556.829,1.807,1.807,0,0,1-1.322-.408L94.8,69.969a2.087,2.087,0,0,1-.059-2.926,2.316,2.316,0,0,1,1.558-.829,1.793,1.793,0,0,1,1.274.377c.16.546.593,1.938,3.037,4.066a11.994,11.994,0,0,0,4.638,2.476A2.1,2.1,0,0,1,105.225,75.975Zm.487-4.49a2.386,2.386,0,0,1-.647.535,10.927,10.927,0,0,1-3.8-2.117,8.57,8.57,0,0,1-2.635-3.3,2.433,2.433,0,0,1,.44-.774A2.314,2.314,0,0,1,100.626,65a1.659,1.659,0,0,1,1.567.685,2.487,2.487,0,0,0,.734,2.7,2.426,2.426,0,0,0,2.8.262A2.1,2.1,0,0,1,105.712,71.484Z"/><path class="a" d="M124.042,23H49.958A3.971,3.971,0,0,0,46,26.982V97H42V32.038a3.007,3.007,0,0,0-3-3L12.084,29h0a3.721,3.721,0,0,0-3.467,2.683L.053,64.758a.965.965,0,0,0-.013.23,3.045,3.045,0,0,0-.04.4V93.924A5.044,5.044,0,0,0,5,99h7.19A10.992,10.992,0,0,0,33.81,99H85.19a10.992,10.992,0,0,0,21.619,0H126a2,2,0,0,0,2-2V26.982A3.971,3.971,0,0,0,124.042,23ZM2,65.391a1.021,1.021,0,0,1,1-1.038H40V67.5H2Zm8.55-33.2A1.741,1.741,0,0,1,12.081,31h0L39,31.035a1,1,0,0,1,1,1V62.353H37.5V34a.5.5,0,0,0-.5-.5H13.5a.5.5,0,0,0-.483.371l-5.5,20.647a.5.5,0,1,0,.967.258l5.4-20.276H36.5V62.353H3c-.091,0-.177.02-.267.027ZM23,106a9,9,0,1,1,9-9A9.01,9.01,0,0,1,23,106Zm11-9a11,11,0,0,0-22,0H5a3.042,3.042,0,0,1-3-3.076V68.5H40V76H29a.5.5,0,0,0,0,1H40v2H29a.5.5,0,0,0,0,1H40V97Zm62,9a9,9,0,1,1,9-9A9.01,9.01,0,0,1,96,106Zm11-9a11,11,0,0,0-22,0H48V94H59a.5.5,0,0,0,0-1H48V91H59a.5.5,0,0,0,0-1H48V26.982A1.972,1.972,0,0,1,49.958,25h74.084A1.972,1.972,0,0,1,126,26.982V90H115a.5.5,0,0,0,0,1h11v2H115a.5.5,0,0,0,0,1h11v3Z"/></g></svg>